Coordinates
version=1
nRows=15
nColumns=63
inDegrees=yes

Units are S.I. units (second, meters, Newtons, ...)
If the header above contains a line with 'inDegrees', this indicates whether rotational values are in degrees (yes) or radians (no).

endheader
time	pelvis_tilt	pelvis_list	pelvis_rotation	pelvis_tx	pelvis_ty	pelvis_tz	hip_flexion_r	hip_adduction_r	hip_rotation_r	knee_angle_r	knee_angle_r_beta	ankle_angle_r	subtalar_angle_r	mtp_angle_r	hip_flexion_l	hip_adduction_l	hip_rotation_l	knee_angle_l	knee_angle_l_beta	ankle_angle_l	subtalar_angle_l	mtp_angle_l	L5_S1_Flex_Ext	L5_S1_Lat_Bending	L5_S1_axial_rotation	L4_L5_Flex_Ext	L4_L5_Lat_Bending	L4_L5_axial_rotation	L3_L4_Flex_Ext	L3_L4_Lat_Bending	L3_L4_axial_rotation	L2_L3_Flex_Ext	L2_L3_Lat_Bending	L2_L3_axial_rotation	L1_L2_Flex_Ext	L1_L2_Lat_Bending	L1_L2_axial_rotation	L1_T12_Flex_Ext	L1_T12_Lat_Bending	L1_T12_axial_rotation	Abs_r3	Abs_r2	Abs_r1	Abs_t1	Abs_t2	neck_flexion	neck_bending	neck_rotation	arm_flex_r	arm_add_r	arm_rot_r	elbow_flex_r	pro_sup_r	wrist_flex_r	wrist_dev_r	arm_flex_l	arm_add_l	arm_rot_l	elbow_flex_l	pro_sup_l	wrist_flex_l	wrist_dev_l
7.333333	7.479618	-4.576070	95.271064	0.239154	0.798849	0.533269	-5.862198	4.332512	7.347601	3.786303	0.066083	6.297030	-8.550294	0.000000	-7.991496	-8.524080	1.454956	0.278428	0.004859	10.657074	8.227162	0.000000	0.751634	1.895013	2.328829	1.395860	2.520367	2.474381	1.234860	4.607535	2.474381	0.859043	4.607535	2.037726	0.697967	3.864311	1.892174	0.429484	2.935375	1.746622	5.368847	21.436767	12.952250	0.000000	0.000000	28.491706	8.354991	43.855585	5.355941	-21.349759	109.692886	20.469617	2.033003	3.059833	-0.899232	-39.077005	-141.521466	-140.967967	64.997363	88.650003	-35.371746	-7.616690
7.350000	7.672047	-4.517747	95.106696	0.239773	0.799950	0.532726	-5.881852	4.588782	6.814206	3.755015	0.065537	5.196103	-8.408425	0.000000	-8.104603	-8.726101	1.240771	0.270490	0.004721	10.358958	8.160491	0.000000	0.752642	1.918816	2.309783	1.397732	2.552025	2.454144	1.236516	4.665409	2.454144	0.860195	4.665409	2.021060	0.698903	3.912849	1.876699	0.430060	2.972246	1.732337	5.376047	21.706028	12.846320	0.000000	0.000000	28.491880	8.392202	43.891410	5.581248	-21.393931	110.359268	20.640281	1.983645	3.226135	-0.680353	-39.140841	-141.474952	-140.249926	64.840859	88.569470	-33.210792	-7.003177
7.366667	7.845257	-4.500132	94.980963	0.240481	0.801493	0.532409	-5.831220	4.834647	6.405170	3.746630	0.065391	3.889026	-8.448987	0.000000	-8.137818	-8.922899	0.980291	0.264136	0.004610	9.884154	8.208645	0.000000	0.755714	1.938350	2.287646	1.403436	2.578006	2.430624	1.241562	4.712904	2.430624	0.863705	4.712904	2.001690	0.701756	3.952683	1.858712	0.431815	3.002504	1.715735	5.397988	21.927003	12.723201	0.000000	0.000000	28.492271	8.466618	43.917464	5.812595	-21.409881	110.956001	20.792419	1.953483	3.353786	-0.479975	-39.253611	-141.533007	-138.538289	64.084623	88.486447	-29.814128	-5.369128
7.383333	7.977102	-4.519355	94.901905	0.241272	0.803427	0.532325	-5.722450	5.045831	6.102085	3.754468	0.065528	2.414930	-8.648175	0.000000	-8.093732	-9.092632	0.686259	0.258994	0.004520	9.228743	8.378150	0.000000	0.759241	1.951478	2.267569	1.409986	2.595466	2.409292	1.247357	4.744824	2.409292	0.867736	4.744824	1.984123	0.705031	3.979454	1.842399	0.433830	3.022839	1.700676	5.423182	22.075509	12.611536	0.000000	0.000000	28.492746	8.547767	43.931156	6.043754	-21.397800	111.524089	20.933702	1.909748	3.429109	-0.345612	-39.514667	-141.644891	-136.138418	62.923800	88.403090	-25.406721	-2.661100
7.400000	8.053234	-4.580624	94.880526	0.242145	0.805622	0.532448	-5.560484	5.207146	5.923606	3.774659	0.065880	0.820533	-9.040273	0.000000	-7.968640	-9.221320	0.414197	0.255134	0.004453	8.433623	8.638033	0.000000	0.763674	1.955915	2.246962	1.418220	2.601367	2.387398	1.254641	4.755613	2.387398	0.872803	4.755613	1.966092	0.709148	3.988503	1.825657	0.436364	3.029713	1.685222	5.454850	22.125706	12.496931	0.000000	0.000000	28.493164	8.649764	43.931553	6.255886	-21.344982	111.967962	21.044041	1.872997	3.480154	-0.230723	-39.860885	-141.764401	-133.060460	61.485097	88.335527	-20.241271	0.749609
7.416667	8.073972	-4.687228	94.926176	0.243082	0.807952	0.532758	-5.346034	5.314275	5.816626	3.807856	0.066460	-0.811466	-9.542341	0.000000	-7.760919	-9.308589	0.200834	0.252554	0.004408	7.535471	8.959636	0.000000	0.769310	1.951648	2.222891	1.428686	2.595692	2.361822	1.263900	4.745237	2.361822	0.879245	4.745237	1.945030	0.714382	3.979801	1.806099	0.439584	3.023103	1.667168	5.495108	22.077434	12.363053	0.000000	0.000000	28.493523	8.768507	43.928877	6.440377	-21.251780	112.245932	21.117929	1.855219	3.516990	-0.163385	-40.263420	-141.845698	-129.421177	59.892992	88.299953	-14.769852	4.453900
7.433333	8.037894	-4.840728	95.013922	0.244064	0.810297	0.533227	-5.082859	5.361021	5.834771	3.851632	0.067224	-2.435228	-10.180696	0.000000	-7.479612	-9.345912	0.040320	0.250807	0.004377	6.575815	9.310257	0.000000	0.775890	1.939175	2.200277	1.440906	2.579102	2.337794	1.274710	4.714909	2.337794	0.886765	4.714909	1.925242	0.720492	3.954365	1.787725	0.443344	3.003781	1.650208	5.542107	21.936331	12.237280	0.000000	0.000000	28.493902	8.879096	43.926988	6.596200	-21.124913	112.382554	21.151912	1.837036	3.546989	-0.149948	-40.701160	-141.867728	-125.385640	58.205222	88.330603	-9.465033	7.838657
7.450000	7.945771	-5.048934	95.152166	0.245050	0.812512	0.533794	-4.771505	5.341290	5.928268	3.899778	0.068064	-3.949381	-10.855698	0.000000	-7.122297	-9.330322	-0.065292	0.249665	0.004357	5.604187	9.695289	0.000000	0.784279	1.918244	2.170212	1.456484	2.551265	2.305850	1.288492	4.664018	2.305850	0.896352	4.664018	1.898936	0.728281	3.911683	1.763297	0.448137	2.971360	1.627659	5.602026	21.699560	12.070068	0.000000	0.000000	28.494429	8.996340	43.935859	6.709431	-20.958874	112.239151	21.132204	1.856210	3.569920	-0.155263	-41.094914	-141.738316	-121.116732	56.678777	88.395574	-4.444621	11.063293
7.466667	7.835637	-5.294574	95.310475	0.245998	0.814528	0.534450	-4.429451	5.287966	6.053373	3.942154	0.068804	-5.298829	-11.455256	0.000000	-6.715583	-9.294030	-0.080156	0.248681	0.004340	4.652195	9.995930	0.000000	0.793550	1.894796	2.147519	1.473701	2.520079	2.281738	1.303723	4.607008	2.281738	0.906948	4.607008	1.879079	0.736890	3.863869	1.744859	0.453434	2.935040	1.610639	5.668247	21.434316	11.943854	0.000000	0.000000	28.495203	9.029939	43.944792	6.752464	-20.795345	111.725719	21.072163	2.049231	3.579433	-0.139998	-41.512716	-141.571537	-117.007487	55.279300	88.401266	0.158561	13.583066
7.483333	7.695185	-5.576256	95.449585	0.246906	0.816252	0.535146	-4.064554	5.183707	6.279157	3.975226	0.069381	-6.399285	-11.980284	0.000000	-6.276927	-9.216639	-0.085080	0.247419	0.004318	3.756223	10.258535	0.000000	0.802715	1.867815	2.135647	1.490721	2.484194	2.269125	1.318780	4.541405	2.269125	0.917423	4.541405	1.868691	0.745401	3.808848	1.735213	0.458671	2.893245	1.601735	5.733711	21.129095	11.877828	0.000000	0.000000	28.496295	8.989700	43.950035	6.730689	-20.619945	111.007090	20.942279	2.274490	3.603711	-0.200270	-41.951801	-141.377625	-113.326784	54.144608	88.253374	4.257132	15.526502
7.500000	7.534547	-5.890865	95.576354	0.247723	0.817613	0.535828	-3.688508	5.037176	6.542331	3.985696	0.069564	-7.205245	-12.341912	0.000000	-5.814115	-9.105798	-0.060114	0.245877	0.004291	2.944296	10.441432	0.000000	0.812626	1.838455	2.124780	1.509127	2.445145	2.257579	1.335063	4.470020	2.257579	0.928750	4.470020	1.859182	0.754604	3.748978	1.726384	0.464334	2.847767	1.593585	5.804505	20.796972	11.817388	0.000000	0.000000	28.497571	8.897643	43.955362	6.647652	-20.438193	110.009575	20.754956	2.610236	3.599678	-0.237399	-42.312572	-141.148240	-110.099710	53.322746	87.930066	7.630250	17.001495
7.516667	7.382504	-6.219466	95.661582	0.248429	0.818603	0.536498	-3.323760	4.877953	6.934558	3.962444	0.069158	-7.745174	-12.645843	0.000000	-5.353638	-8.985892	-0.036518	0.244561	0.004268	2.261169	10.539063	0.000000	0.821662	1.811474	2.115461	1.525909	2.409260	2.247677	1.349909	4.404417	2.247677	0.939078	4.404417	1.851028	0.762996	3.693957	1.718812	0.469498	2.805973	1.586595	5.869052	20.491751	11.765557	0.000000	0.000000	28.499112	8.740841	43.960017	6.547481	-20.267036	108.978707	20.512580	2.967069	3.624945	-0.254613	-42.699595	-140.902922	-107.792628	53.042645	87.548993	10.936910	18.528023
7.533333	7.235171	-6.551563	95.679945	0.249044	0.819198	0.537122	-2.983682	4.703409	7.463204	3.909010	0.068225	-8.025582	-12.915146	0.000000	-4.916192	-8.850175	-0.057554	0.242984	0.004241	1.725610	10.589462	0.000000	0.829768	1.786262	2.107448	1.540962	2.375729	2.239164	1.363226	4.343118	2.239164	0.948342	4.343118	1.844017	0.770523	3.642546	1.712302	0.474129	2.766921	1.580586	5.926950	20.206558	11.720995	0.000000	0.000000	28.500702	8.569598	43.966170	6.433245	-20.098353	107.967309	20.219061	3.317439	3.646575	-0.263902	-43.008809	-140.648838	-106.206434	53.194952	87.192631	13.392607	19.686954
7.550000	7.127375	-6.862596	95.642127	0.249506	0.819425	0.537695	-2.696915	4.548502	8.069178	3.815512	0.066593	-8.100914	-13.124870	0.000000	-4.524184	-8.732724	-0.110999	0.241564	0.004216	1.372524	10.579237	0.000000	0.836198	1.767677	2.088327	1.552903	2.351010	2.218847	1.373789	4.297929	2.218847	0.955690	4.297929	1.827286	0.776493	3.604646	1.696765	0.477803	2.738131	1.566245	5.972876	19.996313	11.614647	0.000000	0.000000	28.501978	8.413064	43.977259	6.342710	-19.952354	107.048165	19.891835	3.682309	3.687466	-0.192323	-43.240106	-140.338598	-105.355632	53.762205	86.827872	14.989287	20.326207
7.566667	7.056949	-7.129021	95.550015	0.249779	0.819347	0.538251	-2.479745	4.409082	8.646698	3.692418	0.064445	-8.001661	-13.191114	0.000000	-4.198251	-8.629597	-0.206834	0.240425	0.004196	1.201729	10.519192	0.000000	0.839536	1.756179	2.063985	1.559102	2.335718	2.192984	1.379273	4.269974	2.192984	0.959505	4.269974	1.805987	0.779593	3.581200	1.676988	0.479711	2.720321	1.547988	5.996719	19.866249	11.479264	0.000000	0.000000	28.502710	8.268955	43.994887	6.259785	-19.841846	106.195076	19.540098	4.063104	3.748990	-0.039180	-43.477382	-140.038913	-105.299560	54.660398	86.333524	15.532922	20.244633
